<svg xmlns="http://www.w3.org/2000/svg" width="87" height="87" viewBox="0 0 87 87">
  <metadata><?xpacket begin="﻿" id="W5M0MpCehiHzreSzNTczkc9d"?>
<x:xmpmeta xmlns:x="adobe:ns:meta/" x:xmptk="Adobe XMP Core 5.6-c142 79.160924, 2017/07/13-01:06:39        ">
   <rdf:RDF xmlns:rdf="http://www.w3.org/1999/02/22-rdf-syntax-ns#">
      <rdf:Description rdf:about=""/>
   </rdf:RDF>
</x:xmpmeta>
                                                                                                    
                                                                                                    
                                                                                                    
                                                                                                    
                                                                                                    
                                                                                                    
                                                                                                    
                                                                                                    
                                                                                                    
                                                                                                    
                                                                                                    
                                                                                                    
                                                                                                    
                                                                                                    
                                                                                                    
                                                                                                    
                                                                                                    
                                                                                                    
                                                                                                    
                                                                                                    
                           
<?xpacket end="w"?></metadata>
<defs>
    <style>
      .cls-1 {
        fill: #60d4d4;
        fill-rule: evenodd;
      }
    </style>
  </defs>
  <path id="cube_logo" data-name="cube logo" class="cls-1" d="M42.4,0.51h-21a21,21,0,1,0,0,42h21V22.589h-7.56v-2.16H42.4V0.51Zm2.581,0v21a21,21,0,0,0,42,0v-21H67.057v7.56H64.9V0.51H44.978Zm-42,44v42H22.958a25.678,25.678,0,0,0,8.7-1.26,17.282,17.282,0,0,0,2.7-30.6h0a10.1,10.1,0,0,0-6.3-9.36,14.441,14.441,0,0,0-5.1-.78H2.979Zm81.838,23.7v-5.4H77.2v-2.1h7.62V44.51h-40.5v42h40.5v-16.2H77.2v-2.1h7.62Z"/>
</svg>
